<?xml version="1.0" standalone="no"?>
<!DOCTYPE svg PUBLIC "-//W3C//DTD SVG 20010904//EN"
 "http://www.w3.org/TR/2001/REC-SVG-20010904/DTD/svg10.dtd">
<svg version="1.0" xmlns="http://www.w3.org/2000/svg"
 width="60.000000pt" height="60.000000pt" viewBox="0 0 60.000000 60.000000"
 preserveAspectRatio="xMidYMid meet">

<g transform="translate(0.000000,60.000000) scale(0.100000,-0.100000)"
fill="#000000" stroke="none">
<path d="M67 413 c-4 -3 -7 -19 -7 -34 0 -23 19 -43 116 -123 64 -53 120 -96
124 -96 4 0 60 43 124 96 108 88 117 99 114 127 -2 17 -8 32 -14 34 -6 2 -58
-35 -115 -82 -57 -47 -106 -85 -109 -85 -3 0 -52 38 -109 85 -104 85 -112 91
-124 78z"/>
</g>
</svg>
