<?xml version="1.0" standalone="no"?>
<!DOCTYPE svg PUBLIC "-//W3C//DTD SVG 20010904//EN"
 "http://www.w3.org/TR/2001/REC-SVG-20010904/DTD/svg10.dtd">
<svg version="1.0" xmlns="http://www.w3.org/2000/svg"
 width="64.000000pt" height="64.000000pt" viewBox="0 0 64.000000 64.000000"
 preserveAspectRatio="xMidYMid meet">

<g transform="translate(0.000000,64.000000) scale(0.100000,-0.100000)"
fill="#000000" stroke="none">
<path d="M150 535 c-9 -11 -32 -15 -81 -15 l-69 0 0 -40 0 -40 69 0 c49 0 72
-4 81 -15 7 -8 20 -15 30 -15 10 0 23 7 30 15 10 12 48 15 221 15 l209 0 0 40
0 40 -209 0 c-173 0 -211 3 -221 15 -7 8 -20 15 -30 15 -10 0 -23 -7 -30 -15z
m45 -56 c0 -32 -4 -44 -15 -44 -16 0 -26 54 -16 82 12 30 31 6 31 -38z m-55 1
c0 -18 -7 -20 -60 -20 -53 0 -60 2 -60 20 0 18 7 20 60 20 53 0 60 -2 60 -20z
m480 0 c0 -19 -7 -20 -200 -20 -193 0 -200 1 -200 20 0 19 7 20 200 20 193 0
200 -1 200 -20z"/>
<path d="M430 375 c-10 -12 -48 -15 -221 -15 l-209 0 0 -40 0 -40 209 0 c173
0 211 -3 221 -15 16 -19 44 -19 60 0 9 11 32 15 81 15 l69 0 0 40 0 40 -69 0
c-49 0 -72 4 -81 15 -7 8 -20 15 -30 15 -10 0 -23 -7 -30 -15z m45 -56 c0 -32
-4 -44 -15 -44 -16 0 -26 54 -16 82 12 30 31 6 31 -38z m-55 1 c0 -19 -7 -20
-200 -20 -193 0 -200 1 -200 20 0 19 7 20 200 20 193 0 200 -1 200 -20z m200
0 c0 -18 -7 -20 -60 -20 -53 0 -60 2 -60 20 0 18 7 20 60 20 53 0 60 -2 60
-20z"/>
<path d="M210 215 c-10 -11 -36 -15 -111 -15 l-99 0 0 -40 0 -40 99 0 c75 0
101 -4 111 -15 16 -19 44 -19 60 0 10 12 45 15 191 15 l179 0 0 40 0 40 -179
0 c-146 0 -181 3 -191 15 -7 8 -20 15 -30 15 -10 0 -23 -7 -30 -15z m45 -56
c0 -32 -4 -44 -15 -44 -16 0 -26 54 -16 82 12 30 31 6 31 -38z m-55 1 c0 -19
-7 -20 -90 -20 -83 0 -90 1 -90 20 0 19 7 20 90 20 83 0 90 -1 90 -20z m420 0
c0 -19 -7 -20 -170 -20 -163 0 -170 1 -170 20 0 19 7 20 170 20 163 0 170 -1
170 -20z"/>
</g>
</svg>
